Coordinates
version=1
nRows=9
nColumns=38
inDegrees=yes

Units are S.I. units (second, meters, Newtons, ...)
Angles are in degrees.

endheader
time	pelvis_tilt	pelvis_list	pelvis_rotation	pelvis_tx	pelvis_ty	pelvis_tz	hip_flexion_r	hip_adduction_r	hip_rotation_r	knee_angle_r	ankle_angle_r	subtalar_angle_r	mtp_angle_r	hip_flexion_l	hip_adduction_l	hip_rotation_l	knee_angle_l	ankle_angle_l	subtalar_angle_l	mtp_angle_l	lumbar_extension	lumbar_bending	lumbar_rotation	arm_flex_r	arm_add_r	arm_rot_r	elbow_flex_r	pro_sup_r	wrist_flex_r	wrist_dev_r	arm_flex_l	arm_add_l	arm_rot_l	elbow_flex_l	pro_sup_l	wrist_flex_l	wrist_dev_l
      1.25000000	      1.32347080	     -1.23770113	      5.28564722	      0.04544274	      0.87926930	     -0.20000529	     27.78990744	      1.89629297	     -5.56882225	    -29.22947775	     -1.07518079	    -13.91101870	      0.00000000	     -2.25195413	     -5.57946252	     -5.98269259	    -55.64821995	    -13.34534132	     -9.97060748	      0.00000000	     -3.65465969	      3.00533993	     -4.77884343	     -7.75111253	     -8.97609212	     32.75199135	     19.12053857	     43.03680175	      0.00000000	      0.00000000	     -5.99705507	    -16.05072116	      4.35217885	     72.26831823	     43.03680175	      0.00000000	      0.00000000
      1.26000000	      1.59085677	     -2.02617996	      4.82218639	      0.05963926	      0.88049717	     -0.19801339	     26.77673382	      3.11492268	     -5.51262538	    -29.52021516	     -0.09868363	    -14.12574290	      0.00000000	     -0.38996678	     -6.54645333	     -6.30976581	    -58.86692094	    -11.89416095	    -11.91954957	      0.00000000	     -4.12326535	      3.94849965	     -4.07141028	     -6.75794438	     -9.38011627	     32.81148540	     19.40767535	     43.05848748	      0.00000000	      0.00000000	     -6.72837616	    -15.54721044	      4.48585369	     71.47097423	     43.05848748	      0.00000000	      0.00000000
      1.27000000	      1.70027143	     -2.75726414	      4.45814093	      0.07339773	      0.88167232	     -0.19630296	     25.83588808	      4.24839705	     -5.36861059	    -29.64406962	      0.87812435	    -14.24888473	      0.00000000	      1.69405748	     -7.20899607	     -6.41422113	    -61.73501817	    -11.48342843	    -14.81438368	      0.00000000	     -4.45727753	      4.81334248	     -3.43031040	     -5.78112094	     -9.78284248	     33.03354435	     19.87794866	     43.09643317	      0.00000000	      0.00000000	     -7.07391209	    -14.91289268	      4.52290015	     69.58829510	     43.09643317	      0.00000000	      0.00000000
      1.28000000	      1.64983319	     -3.24158367	      4.09121757	      0.08679161	      0.88299694	     -0.19480604	     24.97338155	      5.06655616	     -5.12772091	    -29.64272650	      1.91058981	    -14.17024162	      0.00000000	      3.91064419	     -7.67132778	     -6.64396957	    -64.22980836	    -10.65174272	    -17.33401051	      0.00000000	     -4.64280973	      5.40003033	     -2.62754289	     -4.87041066	    -10.29276531	     33.73267567	     20.63344815	     43.19349750	      0.00000000	      0.00000000	     -6.56204120	    -14.16795112	      5.04480677	     65.55055444	     43.19349750	      0.00000000	      0.00000000
      1.29000000	      1.54374249	     -3.59592700	      3.84307818	      0.09988906	      0.88460545	     -0.19349745	     24.09062040	      5.72402425	     -4.92712556	    -29.48998037	      2.80057403	    -14.29280618	      0.00000000	      6.26228316	     -8.21094488	     -6.97298786	    -66.49705181	    -10.09084438	    -18.61153447	      0.00000000	     -4.78415299	      5.81955427	     -2.03603897	     -3.80953105	    -10.67713059	     34.35292701	     21.04319185	     43.28433482	      0.00000000	      0.00000000	     -6.40879281	    -13.78216099	      6.12314406	     62.51537362	     43.28433482	      0.00000000	      0.00000000
      1.30000000	      1.36472740	     -3.74054332	      3.75620477	      0.11263189	      0.88645208	     -0.19251205	     23.26824729	      6.09409992	     -4.73215024	    -29.31931070	      3.57043990	    -14.30114567	      0.00000000	      8.77234309	     -8.23755440	     -6.82295921	    -68.43662920	     -9.39359367	    -19.50060775	      0.00000000	     -4.88315828	      5.98948111	     -1.65037183	     -2.59173883	    -10.90164237	     34.74546108	     21.40868006	     43.33647497	      0.00000000	      0.00000000	     -6.58500497	    -13.49160281	      6.83023120	     60.26024224	     43.33647497	      0.00000000	      0.00000000
      1.31000000	      1.26551823	     -3.59058088	      3.77794212	      0.12516338	      0.88872937	     -0.19187603	     22.27012212	      6.11044949	     -4.50493744	    -29.03618223	      4.46506956	    -14.21896862	      0.00000000	     11.12424088	     -7.83652177	     -6.63791819	    -69.90331369	     -8.36931775	    -19.61812317	      0.00000000	     -5.08276867	      5.84121763	     -1.22746496	     -1.48733580	    -11.21941479	     35.89691054	     21.81376682	     43.46354478	      0.00000000	      0.00000000	     -5.57499199	    -13.18280447	      8.86695063	     55.11910355	     43.46354478	      0.00000000	      0.00000000
      1.32000000	      1.32267543	     -3.18777874	      3.66717711	      0.13833526	      0.89162310	     -0.19121650	     20.93881745	      5.91244406	     -4.17368185	    -28.55903097	      5.27181537	    -14.23506513	      0.00000000	     13.15412764	     -6.94904403	     -6.36335266	    -70.82460872	     -7.65016979	    -19.88530916	      0.00000000	     -5.40746836	      5.37758300	     -0.69696610	     -0.46041736	    -11.30545585	     35.90364719	     22.03007241	     43.46898854	      0.00000000	      0.00000000	     -6.15723614	    -12.94285755	      9.06900352	     54.71077063	     43.46898854	      0.00000000	      0.00000000
      1.33000000	      1.32748126	     -2.65060527	      3.77512404	      0.15114261	      0.89445644	     -0.19102759	     19.67246793	      5.46691099	     -3.92785339	    -28.10614403	      6.25253143	    -13.93332057	      0.00000000	     15.16403001	     -5.72214868	     -5.86847014	    -71.28754085	     -7.53569637	    -20.17666480	      0.00000000	     -5.62408839	      4.83983644	     -0.71465449	      1.14441885	    -11.61456606	     39.12674265	     21.87626489	     43.80369727	      0.00000000	      0.00000000	     -4.31173428	    -13.61293300	     16.56304978	     46.58693500	     43.80369727	      0.00000000	      0.00000000
